<mxfile host="Electron" modified="2023-08-26T21:04:28.439Z" agent="Mozilla/5.0 (Windows NT 10.0; Win64; x64) AppleWebKit/537.36 (KHTML, like Gecko) draw.io/21.6.8 Chrome/114.0.5735.289 Electron/25.5.0 Safari/537.36" etag="kUEEnd6OzteHF9TMEsSh" version="21.6.8" type="device">
  <diagram name="Page-1" id="tsAEL335C2dxmpLqUhN7">
    <mxGraphModel dx="1418" dy="828" grid="1" gridSize="10" guides="1" tooltips="1" connect="1" arrows="1" fold="1" page="1" pageScale="1" pageWidth="1100" pageHeight="1700" math="0" shadow="0">
      <root>
        <mxCell id="0" />
        <mxCell id="1" parent="0" />
        <mxCell id="9HrwT7Scz6jt8xOK1wBm-106" style="edgeStyle=orthogonalEdgeStyle;rounded=0;orthogonalLoop=1;jettySize=auto;html=1;exitX=1;exitY=0.25;exitDx=0;exitDy=0;entryX=0;entryY=0.25;entryDx=0;entryDy=0;" edge="1" parent="1" source="9HrwT7Scz6jt8xOK1wBm-4" target="9HrwT7Scz6jt8xOK1wBm-5">
          <mxGeometry relative="1" as="geometry" />
        </mxCell>
        <mxCell id="9HrwT7Scz6jt8xOK1wBm-113" style="edgeStyle=orthogonalEdgeStyle;rounded=0;orthogonalLoop=1;jettySize=auto;html=1;exitX=0;exitY=0.75;exitDx=0;exitDy=0;entryX=1;entryY=0.75;entryDx=0;entryDy=0;" edge="1" parent="1" source="9HrwT7Scz6jt8xOK1wBm-4" target="9HrwT7Scz6jt8xOK1wBm-13">
          <mxGeometry relative="1" as="geometry" />
        </mxCell>
        <mxCell id="9HrwT7Scz6jt8xOK1wBm-4" value="&lt;font style=&quot;font-size: 14px;&quot;&gt;TicketController&lt;/font&gt;" style="rounded=1;whiteSpace=wrap;html=1;fillColor=#1ba1e2;fontColor=#ffffff;strokeColor=#006EAF;" vertex="1" parent="1">
          <mxGeometry x="210" y="190" width="110" height="40" as="geometry" />
        </mxCell>
        <mxCell id="9HrwT7Scz6jt8xOK1wBm-11" style="edgeStyle=orthogonalEdgeStyle;rounded=0;orthogonalLoop=1;jettySize=auto;html=1;exitX=1;exitY=0.5;exitDx=0;exitDy=0;entryX=0;entryY=0.5;entryDx=0;entryDy=0;" edge="1" parent="1" source="9HrwT7Scz6jt8xOK1wBm-5" target="9HrwT7Scz6jt8xOK1wBm-10">
          <mxGeometry relative="1" as="geometry" />
        </mxCell>
        <mxCell id="9HrwT7Scz6jt8xOK1wBm-107" style="edgeStyle=orthogonalEdgeStyle;rounded=0;orthogonalLoop=1;jettySize=auto;html=1;exitX=0;exitY=0.75;exitDx=0;exitDy=0;entryX=1;entryY=0.75;entryDx=0;entryDy=0;" edge="1" parent="1" source="9HrwT7Scz6jt8xOK1wBm-5" target="9HrwT7Scz6jt8xOK1wBm-4">
          <mxGeometry relative="1" as="geometry" />
        </mxCell>
        <mxCell id="9HrwT7Scz6jt8xOK1wBm-5" value="&lt;font style=&quot;font-size: 14px;&quot;&gt;TicketService&lt;/font&gt;" style="rounded=1;whiteSpace=wrap;html=1;fillColor=#1ba1e2;fontColor=#ffffff;strokeColor=#006EAF;" vertex="1" parent="1">
          <mxGeometry x="420" y="190" width="90" height="40" as="geometry" />
        </mxCell>
        <mxCell id="9HrwT7Scz6jt8xOK1wBm-15" style="edgeStyle=orthogonalEdgeStyle;rounded=0;orthogonalLoop=1;jettySize=auto;html=1;exitX=0.5;exitY=0;exitDx=0;exitDy=0;entryX=1;entryY=0.5;entryDx=0;entryDy=0;" edge="1" parent="1" source="9HrwT7Scz6jt8xOK1wBm-10" target="9HrwT7Scz6jt8xOK1wBm-17">
          <mxGeometry relative="1" as="geometry">
            <mxPoint x="410" y="130" as="targetPoint" />
          </mxGeometry>
        </mxCell>
        <mxCell id="9HrwT7Scz6jt8xOK1wBm-34" style="edgeStyle=orthogonalEdgeStyle;rounded=0;orthogonalLoop=1;jettySize=auto;html=1;exitX=0.5;exitY=0;exitDx=0;exitDy=0;entryX=0.5;entryY=0;entryDx=0;entryDy=0;" edge="1" parent="1" source="9HrwT7Scz6jt8xOK1wBm-10" target="9HrwT7Scz6jt8xOK1wBm-22">
          <mxGeometry relative="1" as="geometry">
            <Array as="points">
              <mxPoint x="645" y="120" />
              <mxPoint x="810" y="120" />
            </Array>
          </mxGeometry>
        </mxCell>
        <mxCell id="9HrwT7Scz6jt8xOK1wBm-36" style="edgeStyle=orthogonalEdgeStyle;rounded=0;orthogonalLoop=1;jettySize=auto;html=1;exitX=0.5;exitY=0;exitDx=0;exitDy=0;entryX=0.5;entryY=0;entryDx=0;entryDy=0;" edge="1" parent="1" source="9HrwT7Scz6jt8xOK1wBm-10" target="9HrwT7Scz6jt8xOK1wBm-23">
          <mxGeometry relative="1" as="geometry" />
        </mxCell>
        <mxCell id="9HrwT7Scz6jt8xOK1wBm-10" value="Show&lt;br&gt;Seats&lt;br&gt;Available" style="rhombus;whiteSpace=wrap;html=1;fillColor=#CF8D1B;strokeColor=#C73500;fontColor=#000000;" vertex="1" parent="1">
          <mxGeometry x="590" y="167.5" width="110" height="85" as="geometry" />
        </mxCell>
        <mxCell id="9HrwT7Scz6jt8xOK1wBm-40" style="edgeStyle=orthogonalEdgeStyle;rounded=0;orthogonalLoop=1;jettySize=auto;html=1;exitX=0.5;exitY=1;exitDx=0;exitDy=0;entryX=0;entryY=0.25;entryDx=0;entryDy=0;" edge="1" parent="1" source="9HrwT7Scz6jt8xOK1wBm-13" target="9HrwT7Scz6jt8xOK1wBm-38">
          <mxGeometry relative="1" as="geometry" />
        </mxCell>
        <mxCell id="9HrwT7Scz6jt8xOK1wBm-112" style="edgeStyle=orthogonalEdgeStyle;rounded=0;orthogonalLoop=1;jettySize=auto;html=1;exitX=1;exitY=0.25;exitDx=0;exitDy=0;entryX=0;entryY=0.25;entryDx=0;entryDy=0;" edge="1" parent="1" source="9HrwT7Scz6jt8xOK1wBm-13" target="9HrwT7Scz6jt8xOK1wBm-4">
          <mxGeometry relative="1" as="geometry" />
        </mxCell>
        <mxCell id="9HrwT7Scz6jt8xOK1wBm-13" value="&lt;font style=&quot;font-size: 14px;&quot;&gt;User&lt;/font&gt;" style="rounded=1;whiteSpace=wrap;html=1;" vertex="1" parent="1">
          <mxGeometry x="20" y="190" width="90" height="40" as="geometry" />
        </mxCell>
        <mxCell id="9HrwT7Scz6jt8xOK1wBm-16" value="No" style="text;html=1;align=center;verticalAlign=middle;resizable=0;points=[];autosize=1;strokeColor=none;fillColor=none;" vertex="1" parent="1">
          <mxGeometry x="580" y="96" width="40" height="30" as="geometry" />
        </mxCell>
        <mxCell id="9HrwT7Scz6jt8xOK1wBm-18" style="edgeStyle=orthogonalEdgeStyle;rounded=0;orthogonalLoop=1;jettySize=auto;html=1;entryX=0.5;entryY=0;entryDx=0;entryDy=0;" edge="1" parent="1" source="9HrwT7Scz6jt8xOK1wBm-17" target="9HrwT7Scz6jt8xOK1wBm-13">
          <mxGeometry relative="1" as="geometry" />
        </mxCell>
        <mxCell id="9HrwT7Scz6jt8xOK1wBm-17" value="&lt;font style=&quot;font-size: 14px;&quot;&gt;Throw Error&lt;/font&gt;" style="rounded=1;whiteSpace=wrap;html=1;fillColor=#a20025;fontColor=#ffffff;strokeColor=#6F0000;" vertex="1" parent="1">
          <mxGeometry x="410" y="100" width="90" height="40" as="geometry" />
        </mxCell>
        <mxCell id="9HrwT7Scz6jt8xOK1wBm-19" value="showSeats" style="text;html=1;align=center;verticalAlign=middle;resizable=0;points=[];autosize=1;strokeColor=none;fillColor=none;" vertex="1" parent="1">
          <mxGeometry x="120" y="173" width="80" height="30" as="geometry" />
        </mxCell>
        <mxCell id="9HrwT7Scz6jt8xOK1wBm-20" value="showSeats" style="text;html=1;align=center;verticalAlign=middle;resizable=0;points=[];autosize=1;strokeColor=none;fillColor=none;" vertex="1" parent="1">
          <mxGeometry x="325" y="173" width="80" height="30" as="geometry" />
        </mxCell>
        <mxCell id="9HrwT7Scz6jt8xOK1wBm-21" value="showSeats" style="text;html=1;align=center;verticalAlign=middle;resizable=0;points=[];autosize=1;strokeColor=none;fillColor=none;" vertex="1" parent="1">
          <mxGeometry x="510" y="184" width="80" height="30" as="geometry" />
        </mxCell>
        <mxCell id="9HrwT7Scz6jt8xOK1wBm-35" style="edgeStyle=orthogonalEdgeStyle;rounded=0;orthogonalLoop=1;jettySize=auto;html=1;exitX=0.5;exitY=1;exitDx=0;exitDy=0;entryX=0.5;entryY=0;entryDx=0;entryDy=0;" edge="1" parent="1" source="9HrwT7Scz6jt8xOK1wBm-22" target="9HrwT7Scz6jt8xOK1wBm-29">
          <mxGeometry relative="1" as="geometry" />
        </mxCell>
        <mxCell id="9HrwT7Scz6jt8xOK1wBm-22" value="&lt;font style=&quot;font-size: 12px;&quot;&gt;ShowSeat table&lt;br&gt;-&amp;gt; all showSeats (LOCKED)&lt;/font&gt;" style="rounded=1;whiteSpace=wrap;html=1;fillColor=#004A00;fontColor=#ffffff;strokeColor=#005700;" vertex="1" parent="1">
          <mxGeometry x="750" y="140" width="120" height="60" as="geometry" />
        </mxCell>
        <mxCell id="9HrwT7Scz6jt8xOK1wBm-32" style="edgeStyle=orthogonalEdgeStyle;rounded=0;orthogonalLoop=1;jettySize=auto;html=1;exitX=0.5;exitY=1;exitDx=0;exitDy=0;entryX=0.5;entryY=0;entryDx=0;entryDy=0;" edge="1" parent="1" source="9HrwT7Scz6jt8xOK1wBm-23" target="9HrwT7Scz6jt8xOK1wBm-29">
          <mxGeometry relative="1" as="geometry" />
        </mxCell>
        <mxCell id="9HrwT7Scz6jt8xOK1wBm-23" value="&lt;font style=&quot;font-size: 12px;&quot;&gt;for each showSeatId in ShowSeatLock table insert&lt;br&gt;-&amp;gt; showSeatId&lt;br&gt;-&amp;gt; lockExpiry&lt;/font&gt;" style="rounded=1;whiteSpace=wrap;html=1;fillColor=#004A00;strokeColor=#005700;fontColor=#ffffff;" vertex="1" parent="1">
          <mxGeometry x="900" y="140" width="160" height="60" as="geometry" />
        </mxCell>
        <mxCell id="9HrwT7Scz6jt8xOK1wBm-33" style="edgeStyle=orthogonalEdgeStyle;rounded=0;orthogonalLoop=1;jettySize=auto;html=1;exitX=0;exitY=0.5;exitDx=0;exitDy=0;entryX=0.5;entryY=1;entryDx=0;entryDy=0;" edge="1" parent="1" source="9HrwT7Scz6jt8xOK1wBm-29" target="9HrwT7Scz6jt8xOK1wBm-5">
          <mxGeometry relative="1" as="geometry">
            <mxPoint x="75" y="230" as="targetPoint" />
            <Array as="points">
              <mxPoint x="465" y="280" />
            </Array>
          </mxGeometry>
        </mxCell>
        <mxCell id="9HrwT7Scz6jt8xOK1wBm-29" value="TicketResponseDto&lt;br&gt;-&amp;gt; Ticket&lt;br&gt;-&amp;gt; List&amp;lt;ShowSeatLock&amp;gt;" style="shape=parallelogram;perimeter=parallelogramPerimeter;whiteSpace=wrap;html=1;fixedSize=1;fillColor=#004A00;strokeColor=#005700;fontColor=#ffffff;rounded=1;" vertex="1" parent="1">
          <mxGeometry x="810" y="250" width="170" height="60" as="geometry" />
        </mxCell>
        <mxCell id="9HrwT7Scz6jt8xOK1wBm-37" value="Yes" style="text;html=1;align=center;verticalAlign=middle;resizable=0;points=[];autosize=1;strokeColor=none;fillColor=none;" vertex="1" parent="1">
          <mxGeometry x="675" y="96" width="40" height="30" as="geometry" />
        </mxCell>
        <mxCell id="9HrwT7Scz6jt8xOK1wBm-115" style="edgeStyle=orthogonalEdgeStyle;rounded=0;orthogonalLoop=1;jettySize=auto;html=1;exitX=1;exitY=0.25;exitDx=0;exitDy=0;entryX=0;entryY=0.25;entryDx=0;entryDy=0;" edge="1" parent="1" source="9HrwT7Scz6jt8xOK1wBm-38" target="9HrwT7Scz6jt8xOK1wBm-39">
          <mxGeometry relative="1" as="geometry" />
        </mxCell>
        <mxCell id="9HrwT7Scz6jt8xOK1wBm-117" style="edgeStyle=orthogonalEdgeStyle;rounded=0;orthogonalLoop=1;jettySize=auto;html=1;exitX=0;exitY=0.75;exitDx=0;exitDy=0;entryX=0.25;entryY=1;entryDx=0;entryDy=0;" edge="1" parent="1" source="9HrwT7Scz6jt8xOK1wBm-38" target="9HrwT7Scz6jt8xOK1wBm-13">
          <mxGeometry relative="1" as="geometry" />
        </mxCell>
        <mxCell id="9HrwT7Scz6jt8xOK1wBm-38" value="&lt;font style=&quot;font-size: 14px;&quot;&gt;PaymentController&lt;/font&gt;" style="rounded=1;whiteSpace=wrap;html=1;fillColor=#1ba1e2;fontColor=#ffffff;strokeColor=#006EAF;" vertex="1" parent="1">
          <mxGeometry x="200" y="415" width="130" height="40" as="geometry" />
        </mxCell>
        <mxCell id="9HrwT7Scz6jt8xOK1wBm-50" style="edgeStyle=orthogonalEdgeStyle;rounded=0;orthogonalLoop=1;jettySize=auto;html=1;exitX=1;exitY=0.5;exitDx=0;exitDy=0;" edge="1" parent="1" source="9HrwT7Scz6jt8xOK1wBm-39" target="9HrwT7Scz6jt8xOK1wBm-49">
          <mxGeometry relative="1" as="geometry" />
        </mxCell>
        <mxCell id="9HrwT7Scz6jt8xOK1wBm-116" style="edgeStyle=orthogonalEdgeStyle;rounded=0;orthogonalLoop=1;jettySize=auto;html=1;exitX=0;exitY=0.75;exitDx=0;exitDy=0;entryX=1;entryY=0.75;entryDx=0;entryDy=0;" edge="1" parent="1" source="9HrwT7Scz6jt8xOK1wBm-39" target="9HrwT7Scz6jt8xOK1wBm-38">
          <mxGeometry relative="1" as="geometry" />
        </mxCell>
        <mxCell id="9HrwT7Scz6jt8xOK1wBm-39" value="&lt;font style=&quot;font-size: 14px;&quot;&gt;PaymentService&lt;/font&gt;" style="rounded=1;whiteSpace=wrap;html=1;fillColor=#1ba1e2;fontColor=#ffffff;strokeColor=#006EAF;" vertex="1" parent="1">
          <mxGeometry x="450" y="415" width="120" height="40" as="geometry" />
        </mxCell>
        <mxCell id="9HrwT7Scz6jt8xOK1wBm-45" value="payment details&lt;br&gt;ticketResponseDto" style="text;html=1;align=center;verticalAlign=middle;resizable=0;points=[];autosize=1;strokeColor=none;fillColor=none;" vertex="1" parent="1">
          <mxGeometry x="330" y="386" width="120" height="40" as="geometry" />
        </mxCell>
        <mxCell id="9HrwT7Scz6jt8xOK1wBm-46" value="ticketResponseDto" style="text;html=1;align=center;verticalAlign=middle;resizable=0;points=[];autosize=1;strokeColor=none;fillColor=none;" vertex="1" parent="1">
          <mxGeometry x="610" y="278" width="120" height="30" as="geometry" />
        </mxCell>
        <mxCell id="9HrwT7Scz6jt8xOK1wBm-65" style="edgeStyle=orthogonalEdgeStyle;rounded=0;orthogonalLoop=1;jettySize=auto;html=1;exitX=1;exitY=0.5;exitDx=0;exitDy=0;entryX=0;entryY=0.5;entryDx=0;entryDy=0;" edge="1" parent="1" source="9HrwT7Scz6jt8xOK1wBm-49" target="9HrwT7Scz6jt8xOK1wBm-59">
          <mxGeometry relative="1" as="geometry" />
        </mxCell>
        <mxCell id="9HrwT7Scz6jt8xOK1wBm-67" style="edgeStyle=orthogonalEdgeStyle;rounded=0;orthogonalLoop=1;jettySize=auto;html=1;exitX=0.5;exitY=1;exitDx=0;exitDy=0;entryX=1;entryY=0.5;entryDx=0;entryDy=0;" edge="1" parent="1" source="9HrwT7Scz6jt8xOK1wBm-49" target="9HrwT7Scz6jt8xOK1wBm-53">
          <mxGeometry relative="1" as="geometry" />
        </mxCell>
        <mxCell id="9HrwT7Scz6jt8xOK1wBm-49" value="lockExpiry&lt;br&gt;for all &lt;br&gt;showSeatLockIds&lt;br&gt;&amp;gt; curTime" style="rhombus;whiteSpace=wrap;html=1;fillColor=#CF8D1B;fontColor=#000000;strokeColor=#C73500;" vertex="1" parent="1">
          <mxGeometry x="620" y="380" width="130" height="110" as="geometry" />
        </mxCell>
        <mxCell id="9HrwT7Scz6jt8xOK1wBm-51" value="payment details&lt;br&gt;ticketResponseDto" style="text;html=1;align=center;verticalAlign=middle;resizable=0;points=[];autosize=1;strokeColor=none;fillColor=none;" vertex="1" parent="1">
          <mxGeometry x="80" y="386" width="120" height="40" as="geometry" />
        </mxCell>
        <mxCell id="9HrwT7Scz6jt8xOK1wBm-68" style="edgeStyle=orthogonalEdgeStyle;rounded=0;orthogonalLoop=1;jettySize=auto;html=1;exitX=0;exitY=0.5;exitDx=0;exitDy=0;entryX=0.5;entryY=1;entryDx=0;entryDy=0;" edge="1" parent="1" source="9HrwT7Scz6jt8xOK1wBm-53" target="9HrwT7Scz6jt8xOK1wBm-39">
          <mxGeometry relative="1" as="geometry" />
        </mxCell>
        <mxCell id="9HrwT7Scz6jt8xOK1wBm-53" value="&lt;font style=&quot;font-size: 14px;&quot;&gt;Throw Error&lt;/font&gt;" style="rounded=1;whiteSpace=wrap;html=1;fillColor=#a20025;fontColor=#ffffff;strokeColor=#6F0000;" vertex="1" parent="1">
          <mxGeometry x="540" y="519" width="90" height="40" as="geometry" />
        </mxCell>
        <mxCell id="9HrwT7Scz6jt8xOK1wBm-56" value="No" style="text;html=1;align=center;verticalAlign=middle;resizable=0;points=[];autosize=1;strokeColor=none;fillColor=none;" vertex="1" parent="1">
          <mxGeometry x="679" y="490" width="40" height="30" as="geometry" />
        </mxCell>
        <mxCell id="9HrwT7Scz6jt8xOK1wBm-58" value="Yes" style="text;html=1;align=center;verticalAlign=middle;resizable=0;points=[];autosize=1;strokeColor=none;fillColor=none;" vertex="1" parent="1">
          <mxGeometry x="772" y="409" width="40" height="30" as="geometry" />
        </mxCell>
        <mxCell id="9HrwT7Scz6jt8xOK1wBm-89" style="edgeStyle=orthogonalEdgeStyle;rounded=0;orthogonalLoop=1;jettySize=auto;html=1;exitX=1;exitY=0.5;exitDx=0;exitDy=0;entryX=0.5;entryY=0;entryDx=0;entryDy=0;" edge="1" parent="1" source="9HrwT7Scz6jt8xOK1wBm-59" target="9HrwT7Scz6jt8xOK1wBm-61">
          <mxGeometry relative="1" as="geometry" />
        </mxCell>
        <mxCell id="9HrwT7Scz6jt8xOK1wBm-59" value="&lt;font style=&quot;font-size: 14px;&quot;&gt;PayentGateway&lt;/font&gt;" style="rounded=1;whiteSpace=wrap;html=1;fillColor=#1ba1e2;fontColor=#ffffff;strokeColor=#006EAF;" vertex="1" parent="1">
          <mxGeometry x="822" y="415" width="120" height="40" as="geometry" />
        </mxCell>
        <mxCell id="9HrwT7Scz6jt8xOK1wBm-82" style="edgeStyle=orthogonalEdgeStyle;rounded=0;orthogonalLoop=1;jettySize=auto;html=1;exitX=0.5;exitY=1;exitDx=0;exitDy=0;entryX=0.5;entryY=0;entryDx=0;entryDy=0;" edge="1" parent="1" source="9HrwT7Scz6jt8xOK1wBm-60" target="9HrwT7Scz6jt8xOK1wBm-81">
          <mxGeometry relative="1" as="geometry" />
        </mxCell>
        <mxCell id="9HrwT7Scz6jt8xOK1wBm-60" value="&lt;font style=&quot;font-size: 12px;&quot;&gt;save&lt;br&gt;-&amp;gt; Ticket (PENDING)&lt;br&gt;-&amp;gt; Payment Details&lt;br&gt;&lt;/font&gt;" style="rounded=1;whiteSpace=wrap;html=1;fillColor=#004A00;fontColor=#ffffff;strokeColor=#005700;" vertex="1" parent="1">
          <mxGeometry x="930.13" y="620" width="123.75" height="50" as="geometry" />
        </mxCell>
        <mxCell id="9HrwT7Scz6jt8xOK1wBm-64" style="edgeStyle=orthogonalEdgeStyle;rounded=0;orthogonalLoop=1;jettySize=auto;html=1;exitX=0.5;exitY=1;exitDx=0;exitDy=0;entryX=0.5;entryY=0;entryDx=0;entryDy=0;" edge="1" parent="1" source="9HrwT7Scz6jt8xOK1wBm-61" target="9HrwT7Scz6jt8xOK1wBm-60">
          <mxGeometry relative="1" as="geometry" />
        </mxCell>
        <mxCell id="9HrwT7Scz6jt8xOK1wBm-91" style="edgeStyle=orthogonalEdgeStyle;rounded=0;orthogonalLoop=1;jettySize=auto;html=1;exitX=0;exitY=0.5;exitDx=0;exitDy=0;entryX=1;entryY=0.5;entryDx=0;entryDy=0;" edge="1" parent="1" source="9HrwT7Scz6jt8xOK1wBm-61" target="9HrwT7Scz6jt8xOK1wBm-86">
          <mxGeometry relative="1" as="geometry" />
        </mxCell>
        <mxCell id="9HrwT7Scz6jt8xOK1wBm-61" value="single&lt;br&gt;Partial Payment&lt;br&gt;success" style="rhombus;whiteSpace=wrap;html=1;fillColor=#CF8D1B;strokeColor=#C73500;fontColor=#000000;" vertex="1" parent="1">
          <mxGeometry x="937" y="496" width="110" height="86" as="geometry" />
        </mxCell>
        <mxCell id="9HrwT7Scz6jt8xOK1wBm-66" value="Yes" style="text;html=1;align=center;verticalAlign=middle;resizable=0;points=[];autosize=1;strokeColor=none;fillColor=none;" vertex="1" parent="1">
          <mxGeometry x="955" y="582" width="40" height="30" as="geometry" />
        </mxCell>
        <mxCell id="9HrwT7Scz6jt8xOK1wBm-70" value="No" style="text;html=1;align=center;verticalAlign=middle;resizable=0;points=[];autosize=1;strokeColor=none;fillColor=none;" vertex="1" parent="1">
          <mxGeometry x="892" y="513" width="40" height="30" as="geometry" />
        </mxCell>
        <mxCell id="9HrwT7Scz6jt8xOK1wBm-74" value="Yes" style="text;html=1;align=center;verticalAlign=middle;resizable=0;points=[];autosize=1;strokeColor=none;fillColor=none;" vertex="1" parent="1">
          <mxGeometry x="955" y="790" width="40" height="30" as="geometry" />
        </mxCell>
        <mxCell id="9HrwT7Scz6jt8xOK1wBm-78" value="No" style="text;html=1;align=center;verticalAlign=middle;resizable=0;points=[];autosize=1;strokeColor=none;fillColor=none;" vertex="1" parent="1">
          <mxGeometry x="897" y="720" width="40" height="30" as="geometry" />
        </mxCell>
        <mxCell id="9HrwT7Scz6jt8xOK1wBm-85" style="edgeStyle=orthogonalEdgeStyle;rounded=0;orthogonalLoop=1;jettySize=auto;html=1;exitX=0.5;exitY=1;exitDx=0;exitDy=0;entryX=0.5;entryY=0;entryDx=0;entryDy=0;" edge="1" parent="1" source="9HrwT7Scz6jt8xOK1wBm-81" target="9HrwT7Scz6jt8xOK1wBm-99">
          <mxGeometry relative="1" as="geometry">
            <mxPoint x="992" y="820" as="targetPoint" />
          </mxGeometry>
        </mxCell>
        <mxCell id="9HrwT7Scz6jt8xOK1wBm-93" style="edgeStyle=orthogonalEdgeStyle;rounded=0;orthogonalLoop=1;jettySize=auto;html=1;exitX=0;exitY=0.5;exitDx=0;exitDy=0;entryX=1;entryY=0.5;entryDx=0;entryDy=0;" edge="1" parent="1" source="9HrwT7Scz6jt8xOK1wBm-81" target="9HrwT7Scz6jt8xOK1wBm-86">
          <mxGeometry relative="1" as="geometry">
            <mxPoint x="812.5" y="700" as="targetPoint" />
          </mxGeometry>
        </mxCell>
        <mxCell id="9HrwT7Scz6jt8xOK1wBm-81" value="all Partial&lt;br&gt;Payments&lt;br&gt;Success" style="rhombus;whiteSpace=wrap;html=1;fillColor=#CF8D1B;strokeColor=#C73500;fontColor=#000000;" vertex="1" parent="1">
          <mxGeometry x="937" y="704" width="110" height="86" as="geometry" />
        </mxCell>
        <mxCell id="9HrwT7Scz6jt8xOK1wBm-97" style="edgeStyle=orthogonalEdgeStyle;rounded=0;orthogonalLoop=1;jettySize=auto;html=1;entryX=1;entryY=0.5;entryDx=0;entryDy=0;exitX=0;exitY=0.5;exitDx=0;exitDy=0;" edge="1" parent="1" source="9HrwT7Scz6jt8xOK1wBm-99" target="9HrwT7Scz6jt8xOK1wBm-86">
          <mxGeometry relative="1" as="geometry">
            <mxPoint x="900" y="864" as="sourcePoint" />
            <mxPoint x="812.5" y="700" as="targetPoint" />
            <Array as="points">
              <mxPoint x="890" y="875" />
              <mxPoint x="890" y="684" />
            </Array>
          </mxGeometry>
        </mxCell>
        <mxCell id="9HrwT7Scz6jt8xOK1wBm-88" style="edgeStyle=orthogonalEdgeStyle;rounded=0;orthogonalLoop=1;jettySize=auto;html=1;exitX=0.5;exitY=0;exitDx=0;exitDy=0;entryX=0.5;entryY=1;entryDx=0;entryDy=0;" edge="1" parent="1" source="9HrwT7Scz6jt8xOK1wBm-86" target="9HrwT7Scz6jt8xOK1wBm-90">
          <mxGeometry relative="1" as="geometry">
            <mxPoint x="812.5" y="660" as="sourcePoint" />
          </mxGeometry>
        </mxCell>
        <mxCell id="9HrwT7Scz6jt8xOK1wBm-86" value="&lt;font style=&quot;&quot;&gt;&lt;font style=&quot;font-size: 12px;&quot;&gt;save&lt;br&gt;-&amp;gt; Ticket (FAILED)&lt;/font&gt;&lt;br&gt;&lt;/font&gt;" style="rounded=1;whiteSpace=wrap;html=1;fillColor=#a20025;fontColor=#ffffff;strokeColor=#6F0000;" vertex="1" parent="1">
          <mxGeometry x="719" y="664" width="125" height="40" as="geometry" />
        </mxCell>
        <mxCell id="9HrwT7Scz6jt8xOK1wBm-92" style="edgeStyle=orthogonalEdgeStyle;rounded=0;orthogonalLoop=1;jettySize=auto;html=1;exitX=0;exitY=0.5;exitDx=0;exitDy=0;entryX=1;entryY=0.5;entryDx=0;entryDy=0;" edge="1" parent="1" source="9HrwT7Scz6jt8xOK1wBm-90" target="9HrwT7Scz6jt8xOK1wBm-53">
          <mxGeometry relative="1" as="geometry" />
        </mxCell>
        <mxCell id="9HrwT7Scz6jt8xOK1wBm-90" value="&lt;font style=&quot;&quot;&gt;&lt;font style=&quot;font-size: 12px;&quot;&gt;save&lt;br&gt;-&amp;gt; Payment Details&lt;/font&gt;&lt;br&gt;&lt;/font&gt;" style="rounded=1;whiteSpace=wrap;html=1;fillColor=#a20025;fontColor=#ffffff;strokeColor=#6F0000;" vertex="1" parent="1">
          <mxGeometry x="719" y="519" width="125" height="40" as="geometry" />
        </mxCell>
        <mxCell id="9HrwT7Scz6jt8xOK1wBm-101" style="edgeStyle=orthogonalEdgeStyle;rounded=0;orthogonalLoop=1;jettySize=auto;html=1;exitX=0;exitY=0.5;exitDx=0;exitDy=0;entryX=1;entryY=0.5;entryDx=0;entryDy=0;" edge="1" parent="1" source="9HrwT7Scz6jt8xOK1wBm-94" target="9HrwT7Scz6jt8xOK1wBm-102">
          <mxGeometry relative="1" as="geometry">
            <mxPoint x="740" y="995" as="targetPoint" />
          </mxGeometry>
        </mxCell>
        <mxCell id="9HrwT7Scz6jt8xOK1wBm-94" value="&lt;font style=&quot;font-size: 12px;&quot;&gt;save&lt;br&gt;-&amp;gt; Ticket (BOOKED)&lt;br&gt;-&amp;gt; Payment Details&lt;br&gt;-&amp;gt; all showSeats (BOOKED)&lt;br&gt;&lt;/font&gt;" style="rounded=1;whiteSpace=wrap;html=1;fillColor=#004A00;strokeColor=#005700;fontColor=#ffffff;" vertex="1" parent="1">
          <mxGeometry x="911.0600000000001" y="965" width="161.87" height="60" as="geometry" />
        </mxCell>
        <mxCell id="9HrwT7Scz6jt8xOK1wBm-96" value="Yes" style="text;html=1;align=center;verticalAlign=middle;resizable=0;points=[];autosize=1;strokeColor=none;fillColor=none;" vertex="1" parent="1">
          <mxGeometry x="955" y="930" width="40" height="30" as="geometry" />
        </mxCell>
        <mxCell id="9HrwT7Scz6jt8xOK1wBm-98" value="No" style="text;html=1;align=center;verticalAlign=middle;resizable=0;points=[];autosize=1;strokeColor=none;fillColor=none;" vertex="1" parent="1">
          <mxGeometry x="892" y="850" width="40" height="30" as="geometry" />
        </mxCell>
        <mxCell id="9HrwT7Scz6jt8xOK1wBm-100" style="edgeStyle=orthogonalEdgeStyle;rounded=0;orthogonalLoop=1;jettySize=auto;html=1;exitX=0.5;exitY=1;exitDx=0;exitDy=0;entryX=0.5;entryY=0;entryDx=0;entryDy=0;" edge="1" parent="1" source="9HrwT7Scz6jt8xOK1wBm-99" target="9HrwT7Scz6jt8xOK1wBm-94">
          <mxGeometry relative="1" as="geometry" />
        </mxCell>
        <mxCell id="9HrwT7Scz6jt8xOK1wBm-99" value="lockExpiry&lt;br&gt;for all &lt;br&gt;showSeatLockIds&lt;br&gt;&amp;gt; curTime" style="rhombus;whiteSpace=wrap;html=1;fillColor=#CF8D1B;strokeColor=#C73500;fontColor=#000000;" vertex="1" parent="1">
          <mxGeometry x="927.01" y="820" width="130" height="110" as="geometry" />
        </mxCell>
        <mxCell id="9HrwT7Scz6jt8xOK1wBm-103" style="edgeStyle=orthogonalEdgeStyle;rounded=0;orthogonalLoop=1;jettySize=auto;html=1;entryX=0.5;entryY=1;entryDx=0;entryDy=0;" edge="1" parent="1" source="9HrwT7Scz6jt8xOK1wBm-102" target="9HrwT7Scz6jt8xOK1wBm-39">
          <mxGeometry relative="1" as="geometry" />
        </mxCell>
        <mxCell id="9HrwT7Scz6jt8xOK1wBm-102" value="TicketResponseDto&lt;br&gt;-&amp;gt; Ticket" style="shape=parallelogram;perimeter=parallelogramPerimeter;whiteSpace=wrap;html=1;fixedSize=1;fillColor=#004A00;strokeColor=#005700;fontColor=#ffffff;rounded=1;" vertex="1" parent="1">
          <mxGeometry x="432.5" y="972.5" width="155" height="45" as="geometry" />
        </mxCell>
        <mxCell id="9HrwT7Scz6jt8xOK1wBm-108" value="ticketResponseDto" style="text;html=1;align=center;verticalAlign=middle;resizable=0;points=[];autosize=1;strokeColor=none;fillColor=none;" vertex="1" parent="1">
          <mxGeometry x="312.5" y="218" width="120" height="30" as="geometry" />
        </mxCell>
        <mxCell id="9HrwT7Scz6jt8xOK1wBm-114" value="ticketResponseDto" style="text;html=1;align=center;verticalAlign=middle;resizable=0;points=[];autosize=1;strokeColor=none;fillColor=none;" vertex="1" parent="1">
          <mxGeometry x="100" y="218" width="120" height="30" as="geometry" />
        </mxCell>
        <mxCell id="9HrwT7Scz6jt8xOK1wBm-118" value="ticketResponseDto" style="text;html=1;align=center;verticalAlign=middle;resizable=0;points=[];autosize=1;strokeColor=none;fillColor=none;" vertex="1" parent="1">
          <mxGeometry x="330" y="442" width="120" height="30" as="geometry" />
        </mxCell>
        <mxCell id="9HrwT7Scz6jt8xOK1wBm-119" value="ticketResponseDto" style="text;html=1;align=center;verticalAlign=middle;resizable=0;points=[];autosize=1;strokeColor=none;fillColor=none;" vertex="1" parent="1">
          <mxGeometry x="80" y="442" width="120" height="30" as="geometry" />
        </mxCell>
      </root>
    </mxGraphModel>
  </diagram>
</mxfile>
